# xmcd
#
# Track frame offsets:
#	150
#	15182
#	30647
#	49959
#	62175
#	85509
#	104364
#	131621
#	148566
#	169971
#
# Disc length: 2479 seconds
#
# Revision: 0
# Processed by: cddbd v1.4PL0 Copyright (c) Steve Scherf et al.
# Submitted via: audiograbber 1.82.02
#
DISCID=7e09ad0a
DTITLE=Scott Holt Band - Chipped Front Tooth
DYEAR=2003
DGENRE=Blues
TTITLE0=Rockin' Daddy
TTITLE1=Tick
TTITLE2=You'd Be A Millionaire
TTITLE3=Live Wire
TTITLE4=One Day Away
TTITLE5=I Don't Know
TTITLE6=Walk On Water
TTITLE7=Moanin' For You Girl
TTITLE8=If I  Could
TTITLE9=One Night
EXTD=
EXTT0=
EXTT1=
EXTT2=
EXTT3=
EXTT4=
EXTT5=
EXTT6=
EXTT7=
EXTT8=
EXTT9=
PLAYORDER=
